<?xml version="1.0" encoding="utf-8"?><svg xmlns="http://www.w3.org/2000/svg" xmlns:xlink="http://www.w3.org/1999/xlink"><symbol viewBox="0 0 475.082 475.082" id="a" xmlns="http://www.w3.org/2000/svg"><path d="M473.371 433.11c-10.657-3.997-20.458-6.563-29.407-7.706-8.945-.767-15.516-2.95-19.701-6.567-2.475-1.529-5.808-6.95-9.996-16.279-7.806-15.604-13.989-29.786-18.555-42.537-7.427-20.181-13.617-35.789-18.565-46.829-10.845-25.311-19.982-47.678-27.401-67.092-4.001-10.466-15.797-38.731-35.405-84.796L255.813 24.265l-3.142-5.996h-36.543l-79.94 206.704-67.665 175.874c-5.33 9.896-9.9 16.372-13.706 19.417-3.996 2.848-14.466 5.805-31.405 8.843-11.042 2.102-18.654 3.812-22.841 5.141L0 456.812h5.996c16.37 0 32.264-1.334 47.679-3.997l13.706-2.279c53.868 3.806 87.082 5.708 99.642 5.708.381-1.902.571-4.476.571-7.706 0-5.715-.094-11.231-.287-16.563-3.996-.568-7.851-1.143-11.561-1.711-3.711-.575-6.567-1.047-8.565-1.431-1.997-.373-3.284-.568-3.855-.568-14.657-2.094-24.46-5.14-29.407-9.134-3.236-2.282-4.854-6.375-4.854-12.278 0-3.806 2.19-11.796 6.567-23.982 14.277-39.776 24.172-65.856 29.692-78.224l128.483.568 26.269 65.096 13.411 32.541c1.144 3.241 1.711 6.283 1.711 9.138s-1.14 5.428-3.426 7.707c-2.285 1.905-8.753 4.093-19.417 6.563l-37.404 7.994c-.763 6.283-1.136 13.702-1.136 22.271l16.56-.575 57.103-3.138c10.656-.38 23.51-.575 38.547-.575 18.264 0 36.251.763 53.957 2.282 21.313 1.523 39.588 2.283 54.819 2.283.192-2.283.281-4.754.281-7.423 0-3.422-.569-8.842-1.711-16.269zM251.245 270.941c-2.666 0-7.662-.052-14.989-.144-7.327-.089-18.649-.233-33.973-.425-15.321-.195-29.93-.383-43.824-.574l48.535-128.477c7.424 15.037 16.178 35.117 26.264 60.242 11.425 27.79 20.179 50.727 26.273 68.809l-8.286.569z"/></symbol><symbol viewBox="0 0 6 10" id="arrow" xmlns="http://www.w3.org/2000/svg"><path d="M0 9.17a.32.32 0 00.1.23l.516.5a.357.357 0 00.237.1.362.362 0 00.237-.1l4.8-4.67a.308.308 0 000-.46L1.09.1A.362.362 0 00.853 0a.357.357 0 00-.237.1L.1.6a.308.308 0 000 .46L4.152 5 .1 8.94a.339.339 0 00-.1.23z"/></symbol><symbol viewBox="0 0 522.468 522.469" id="code" xmlns="http://www.w3.org/2000/svg"><path d="M325.762 70.513l-17.706-4.854c-2.279-.76-4.524-.521-6.707.715-2.19 1.237-3.669 3.094-4.429 5.568L190.426 440.53c-.76 2.475-.522 4.809.715 6.995 1.237 2.19 3.09 3.665 5.568 4.425l17.701 4.856c2.284.766 4.521.526 6.71-.712 2.19-1.243 3.666-3.094 4.425-5.564L332.042 81.936c.759-2.474.523-4.808-.716-6.999-1.238-2.19-3.089-3.665-5.564-4.424zM166.167 142.465c0-2.474-.953-4.665-2.856-6.567l-14.277-14.276c-1.903-1.903-4.093-2.857-6.567-2.857s-4.665.955-6.567 2.857L2.856 254.666C.95 256.569 0 258.759 0 261.233s.953 4.664 2.856 6.566l133.043 133.044c1.902 1.906 4.089 2.854 6.567 2.854s4.665-.951 6.567-2.854l14.277-14.268c1.903-1.902 2.856-4.093 2.856-6.57 0-2.471-.953-4.661-2.856-6.563L51.107 261.233l112.204-112.201c1.906-1.902 2.856-4.093 2.856-6.567zM519.614 254.663L386.567 121.619c-1.902-1.902-4.093-2.857-6.563-2.857-2.478 0-4.661.955-6.57 2.857l-14.271 14.275c-1.902 1.903-2.851 4.09-2.851 6.567s.948 4.665 2.851 6.567l112.206 112.204-112.206 112.21c-1.902 1.902-2.851 4.093-2.851 6.563 0 2.478.948 4.668 2.851 6.57l14.271 14.268c1.909 1.906 4.093 2.854 6.57 2.854 2.471 0 4.661-.951 6.563-2.854L519.614 267.8c1.903-1.902 2.854-4.096 2.854-6.57 0-2.475-.951-4.665-2.854-6.567z"/></symbol><symbol viewBox="0 0 24 24" id="fb" xmlns="http://www.w3.org/2000/svg"><path d="M15.997 3.985h2.191V.169C17.81.117 16.51 0 14.996 0c-3.159 0-5.323 1.987-5.323 5.639V9H6.187v4.266h3.486V24h4.274V13.267h3.345l.531-4.266h-3.877V6.062c.001-1.233.333-2.077 2.051-2.077z"/></symbol><symbol viewBox="0 0 96.828 96.827" id="gp" xmlns="http://www.w3.org/2000/svg"><path d="M62.617 0H39.525c-10.29 0-17.413 2.256-23.824 7.552-5.042 4.35-8.051 10.672-8.051 16.912 0 9.614 7.33 19.831 20.913 19.831 1.306 0 2.752-.134 4.028-.253l-.188.457c-.546 1.308-1.063 2.542-1.063 4.468 0 3.75 1.809 6.063 3.558 8.298l.22.283-.391.027c-5.609.384-16.049 1.1-23.675 5.787-9.007 5.355-9.707 13.145-9.707 15.404 0 8.988 8.376 18.06 27.09 18.06 21.76 0 33.146-12.005 33.146-23.863.002-8.771-5.141-13.101-10.6-17.698l-4.605-3.582c-1.423-1.179-3.195-2.646-3.195-5.364 0-2.672 1.772-4.436 3.336-5.992l.163-.165c4.973-3.917 10.609-8.358 10.609-17.964 0-9.658-6.035-14.649-8.937-17.048h7.663a.488.488 0 00.266-.077l6.601-4.15A.5.5 0 0062.617 0zM34.614 91.535c-13.264 0-22.176-6.195-22.176-15.416 0-6.021 3.645-10.396 10.824-12.997 5.749-1.935 13.17-2.031 13.244-2.031 1.257 0 1.889 0 2.893.126 9.281 6.605 13.743 10.073 13.743 16.678-.001 8.414-7.101 13.64-18.528 13.64zm-.125-50.779c-11.132 0-15.752-14.633-15.752-22.468 0-3.984.906-7.042 2.77-9.351 2.023-2.531 5.487-4.166 8.825-4.166 10.221 0 15.873 13.738 15.873 23.233 0 1.498 0 6.055-3.148 9.22-2.117 2.113-5.56 3.532-8.568 3.532zM94.982 45.223H82.814V33.098a.5.5 0 00-.5-.5H77.08a.5.5 0 00-.5.5v12.125H64.473a.5.5 0 00-.5.5v5.304a.5.5 0 00.5.5H76.58V63.73a.5.5 0 00.5.5h5.234c.275 0 .5-.225.5-.5V51.525h12.168a.5.5 0 00.5-.5v-5.302c0-.277-.223-.5-.5-.5z"/></symbol><symbol viewBox="0 0 512 512" id="lifebuoy" xmlns="http://www.w3.org/2000/svg"><path d="M437.019 74.981C388.667 26.629 324.38 0 256 0S123.333 26.629 74.981 74.981C26.629 123.333 0 187.62 0 256s26.629 132.667 74.981 181.019C123.333 485.371 187.62 512 256 512s132.667-26.629 181.019-74.981C485.371 388.667 512 324.38 512 256s-26.629-132.667-74.981-181.019zM59.229 358.409C43.209 327.753 34.133 292.919 34.133 256c0-36.919 9.076-71.753 25.095-102.408l81.416 40.709c-9.876 18.392-15.489 39.401-15.489 61.699s5.613 43.307 15.49 61.701l-81.416 40.708zM256 34.133c36.919 0 71.753 9.076 102.408 25.095l-40.709 81.416c-18.392-9.876-39.401-15.489-61.699-15.489s-43.307 5.613-61.701 15.49L153.59 59.229c30.657-16.02 65.491-25.096 102.41-25.096zM352.711 256c0 53.327-43.385 96.711-96.711 96.711S159.289 309.326 159.289 256s43.385-96.711 96.711-96.711c53.327 0 96.711 43.385 96.711 96.711zM256 477.867c-36.919 0-71.753-9.076-102.408-25.095l40.709-81.416c18.392 9.876 39.401 15.489 61.699 15.489s43.307-5.613 61.701-15.49l40.709 81.416c-30.657 16.02-65.491 25.096-102.41 25.096zm115.355-160.166c9.877-18.393 15.49-39.402 15.49-61.701s-5.613-43.307-15.49-61.701l81.416-40.709c16.02 30.656 25.096 65.491 25.096 102.409 0 36.919-9.076 71.753-25.095 102.408l-81.417-40.706z"/></symbol><symbol viewBox="0 0 24 24" id="linkedin" xmlns="http://www.w3.org/2000/svg"><path d="M23.994 24v-.001H24v-8.802c0-4.306-.927-7.623-5.961-7.623-2.42 0-4.044 1.328-4.707 2.587h-.07V7.976H8.489v16.023h4.97v-7.934c0-2.089.396-4.109 2.983-4.109 2.549 0 2.587 2.384 2.587 4.243V24zM.396 7.977h4.976V24H.396zM2.882 0C1.291 0 0 1.291 0 2.882s1.291 2.909 2.882 2.909 2.882-1.318 2.882-2.909A2.884 2.884 0 002.882 0z"/></symbol><symbol viewBox="0 0 479.058 479.058" id="mail" xmlns="http://www.w3.org/2000/svg"><path d="M434.146 59.882H44.912C20.146 59.882 0 80.028 0 104.794v269.47c0 24.766 20.146 44.912 44.912 44.912h389.234c24.766 0 44.912-20.146 44.912-44.912v-269.47c0-24.766-20.146-44.912-44.912-44.912zm0 29.941c2.034 0 3.969.422 5.738 1.159L239.529 264.631 39.173 90.982a14.902 14.902 0 015.738-1.159zm0 299.411H44.912c-8.26 0-14.971-6.71-14.971-14.971V122.615l199.778 173.141c2.822 2.441 6.316 3.655 9.81 3.655s6.988-1.213 9.81-3.655l199.778-173.141v251.649c-.001 8.26-6.711 14.97-14.971 14.97z"/></symbol><symbol viewBox="0 0 97.713 97.713" id="point" xmlns="http://www.w3.org/2000/svg"><path d="M48.855 0C29.021 0 12.883 16.138 12.883 35.974c0 5.174 1.059 10.114 3.146 14.684 8.994 19.681 26.238 40.46 31.31 46.359a2.003 2.003 0 003.034 0c5.07-5.898 22.314-26.676 31.311-46.359 2.088-4.57 3.146-9.51 3.146-14.684C84.828 16.138 68.69 0 48.855 0zm0 54.659c-10.303 0-18.686-8.383-18.686-18.686 0-10.304 8.383-18.687 18.686-18.687s18.686 8.383 18.686 18.687c.001 10.303-8.382 18.686-18.686 18.686z"/></symbol><symbol viewBox="0 0 35 35" id="smartphone" xmlns="http://www.w3.org/2000/svg"><path d="M25.302 0H9.698a2.37 2.37 0 00-2.364 2.364v30.271A2.371 2.371 0 009.698 35h15.604a2.37 2.37 0 002.364-2.364V2.364A2.37 2.37 0 0025.302 0zM15.004 1.704h4.992a.286.286 0 010 .573h-4.992a.286.286 0 110-.573zM17.5 33.818a1.182 1.182 0 110-2.364 1.182 1.182 0 010 2.364zm8.521-3.193H8.979V3.749h17.042v26.876z"/></symbol><symbol viewBox="0 0 512 512" id="tw" xmlns="http://www.w3.org/2000/svg"><path d="M512 97.248c-19.04 8.352-39.328 13.888-60.48 16.576 21.76-12.992 38.368-33.408 46.176-58.016-20.288 12.096-42.688 20.64-66.56 25.408C411.872 60.704 384.416 48 354.464 48c-58.112 0-104.896 47.168-104.896 104.992 0 8.32.704 16.32 2.432 23.936-87.264-4.256-164.48-46.08-216.352-109.792-9.056 15.712-14.368 33.696-14.368 53.056 0 36.352 18.72 68.576 46.624 87.232-16.864-.32-33.408-5.216-47.424-12.928v1.152c0 51.008 36.384 93.376 84.096 103.136-8.544 2.336-17.856 3.456-27.52 3.456-6.72 0-13.504-.384-19.872-1.792 13.6 41.568 52.192 72.128 98.08 73.12-35.712 27.936-81.056 44.768-130.144 44.768-8.608 0-16.864-.384-25.12-1.44C46.496 446.88 101.6 464 161.024 464c193.152 0 298.752-160 298.752-298.688 0-4.64-.16-9.12-.384-13.568 20.832-14.784 38.336-33.248 52.608-54.496z"/></symbol></svg>